<svg width="111" height="32" viewBox="0 0 111 32" fill="none" xmlns="http://www.w3.org/2000/svg">
<path d="M17.9474 15.0709V24.0137H14.4704L14.1718 21.262C12.9005 23.2876 10.6948 24.3964 8.41328 24.3964C3.70221 24.3978 0 20.5754 0 15.0709C0 9.56627 3.8888 5.70845 9.01166 5.70845C14.1345 5.70845 17.9487 9.148 17.9487 15.0722M14.0599 15.0722C14.0599 11.4419 11.7037 9.30189 9.01166 9.30189C6.17034 9.30189 3.92611 11.6326 3.92611 15.0722C3.92611 18.5117 6.0571 20.8056 9.01166 20.8056C11.5544 20.8056 14.0599 18.78 14.0599 15.0722Z" fill="#171717"/>
<path d="M23.7652 0H19.8391V24.015H23.7652V0Z" fill="#171717"/>
<path d="M34.63 9.45317H29.4698V17.0978C29.4698 19.7731 30.516 20.6899 33.2093 20.6899C33.5079 20.6899 33.7704 20.6899 34.518 20.6518V23.9769C33.6957 24.1676 32.9481 24.2833 32.0872 24.2833C28.3477 24.2833 25.5063 21.9526 25.5063 17.5568V2.92131H29.4698V6.0899H34.63V9.45317Z" fill="#171717"/>
<path d="M34.0161 15.0709C34.0161 9.79647 37.9049 5.70715 43.1771 5.70715C48.4492 5.70715 52.3753 9.79647 52.3753 15.0709C52.3753 20.3453 48.4865 24.3965 43.1771 24.3965C37.8676 24.3965 34.0161 20.3453 34.0161 15.0709ZM48.4492 15.0709C48.4492 11.7076 46.205 9.30059 43.1771 9.30059C40.1491 9.30059 37.9422 11.7076 37.9422 15.0709C37.9422 18.4341 40.1479 20.8043 43.1771 20.8043C46.2063 20.8043 48.4492 18.396 48.4492 15.0709Z" fill="#171717"/>
<path d="M72.7969 6.16461H76.2366V23.1716C76.2366 29.5167 71.7868 32 67.5621 32C62.6271 32 59.374 29.5535 58.6997 25.3116H62.7005C63.2242 27.2609 64.982 28.446 67.5621 28.446C70.1422 28.446 72.3478 26.9176 72.3478 23.1716V21.3749C71.0764 23.286 68.9081 24.3554 66.4773 24.3554C62.2153 24.3567 58.1772 21.0697 58.1772 15.0706C58.1772 9.07145 62.2153 5.78317 66.4773 5.78317C68.9828 5.78317 71.2257 6.89198 72.4598 8.95571L72.7969 6.16593V6.16461ZM72.4225 15.0693C72.4225 11.439 69.8797 9.37398 67.2996 9.37398C64.4956 9.37398 62.0648 11.514 62.0648 15.0693C62.0648 18.6246 64.4956 20.7633 67.2996 20.7633C69.8797 20.7633 72.4225 18.6996 72.4225 15.0693Z" fill="#171717"/>
<path d="M81.4273 6.16455H77.5012V24.0896H81.4273V6.16455Z" fill="#171717"/>
<path d="M83.473 24.0897V13.0832C83.473 8.64924 86.0904 5.78317 90.315 5.78317C91.1 5.78317 91.7357 5.8976 92.4087 6.0515V9.72123C91.8386 9.68045 91.3239 9.68308 91.0627 9.68308C88.7451 9.68308 87.3978 10.7537 87.3978 13.7724V24.091H83.4717L83.473 24.0897Z" fill="#171717"/>
<path d="M92.6409 15.4681C92.6409 10.1937 96.5297 6.10442 101.802 6.10442C107.074 6.10442 111 10.1937 111 15.4681C111 20.7426 107.111 24.7937 101.802 24.7937C96.4924 24.7937 92.6409 20.7426 92.6409 15.4681ZM107.074 15.4681C107.074 12.1049 104.83 9.69654 101.802 9.69654C98.7739 9.69654 96.567 12.1049 96.567 15.4681C96.567 18.8314 98.7726 21.2003 101.802 21.2003C104.831 21.2003 107.074 18.7933 107.074 15.4681Z" fill="#171717"/>
</svg>
